<?xml version="1.0" encoding="utf-8"?>
<!-- Generator: Adobe Illustrator 23.1.0, SVG Export Plug-In . SVG Version: 6.00 Build 0)  -->
<svg version="1.1" xmlns="http://www.w3.org/2000/svg" xmlns:xlink="http://www.w3.org/1999/xlink" x="0px" y="0px"
	 viewBox="0 0 215 215" style="enable-background:new 0 0 215 215;" xml:space="preserve">
<style type="text/css">
	.st0{fill:#FFFFFF;}
</style>
<g id="Layer_1">
</g>
<g id="Layer_2">
	<g>
		<g>
			<path class="st0" d="M138.5,126c1.1,0,2,0.9,2,2v33.74l49.62-49.62L107,29l-83,83l48,48v-29c0-2.76,2.24-5,5-5s5,2.24,5,5v39
				l5.75,5.75v-45.5c0-2.35,1.9-4.25,4.25-4.25s4.25,1.9,4.25,4.25v54l8.5,8.5v-63.5c0-1.79,1.46-3.25,3.25-3.25
				s3.25,1.46,3.25,3.25v61.74l11.25-11.25V128.5c0-1.38,1.12-2.5,2.5-2.5s2.5,1.12,2.5,2.5v46.24l9-9V128
				C136.5,126.9,137.4,126,138.5,126z M50.5,106c0-2.21,1.79-4,4-4h105c2.21,0,4,1.79,4,4s-1.79,4-4,4h-105
				C52.29,110,50.5,108.21,50.5,106z M64.5,122c-1.66,0-3-1.34-3-3s1.34-3,3-3h85c1.66,0,3,1.34,3,3s-1.34,3-3,3H64.5z"/>
		</g>
	</g>
</g>
</svg>
