<svg xmlns="http://www.w3.org/2000/svg" viewBox="0 0 90 90">
    <path d="m22.297311,55.282129l6.62051,-42.58132c0.10057,-0.64886 0.6027,-1.16042 1.24691,-1.27035c0.64422,-0.10992 1.28622,0.20642 1.59425,0.78556l7.11809,13.36035l-16.57976,29.70576zm47.01208,10.33327l-6.30145,-39.18779c-0.09519,-0.56282 -0.49485,-1.02526 -1.03603,-1.19879c-0.54119,-0.17352 -1.1335,-0.02915 -1.53544,0.37427l-39.74586,40.01231l21.9924,12.39458c1.38102,0.77491 3.06305,0.77491 4.44406,0l22.18232,-12.39458zm-17.8712,-34.19866l-5.09357,-9.74541c-0.26269,-0.5018 -0.78042,-0.81599 -1.34462,-0.81599c-0.56419,0 -1.08193,0.31419 -1.34461,0.81599l-22.36464,40.08102l30.14744,-30.33561z"/>
</svg>